<svg xmlns="http://www.w3.org/2000/svg" xmlns:xlink="http://www.w3.org/1999/xlink" width="283.289" height="283.288"><defs><radialGradient xlink:href="#a" id="b" cx="182.984" cy="395.049" r="148.953" fx="182.984" fy="395.049" gradientTransform="matrix(.22914 -.24901 .76436 .83064 -272.853 -159.695)" gradientUnits="userSpaceOnUse"/><linearGradient id="a"><stop offset="0" style="stop-color:#008cbe;stop-opacity:1"/><stop offset="1" style="stop-color:#b2ffff;stop-opacity:1"/></linearGradient></defs><g transform="translate(-511.806 -794.548) scale(8.45197)"><path d="M66.432 97.489c-5.196 5.646-3.937 16.169 2.811 23.502 6.748 7.332 16.43 8.7 21.625 3.053 5.196-5.647 3.94-16.17-2.807-23.503-6.748-7.332-16.433-8.699-21.629-3.052zm4.712 2.345c4.082-4.436 11.589-3.471 16.767 2.156 5.178 5.628 6.066 13.785 1.984 18.222-4.083 4.436-11.591 3.473-16.77-2.154-5.178-5.628-6.064-13.787-1.981-18.224z" style="fill:url(#b);fill-opacity:1;stroke:none"/><rect width="4.35" height="4.35" x="85.382" y="99.494" rx=".77" ry=".77" style="fill:#ff7f2a;fill-opacity:1;fill-rule:nonzero;stroke:#d45500;stroke-width:.74403799;stroke-miterlimit:4;stroke-dasharray:none"/><rect width="10.245" height="10.245" x="60.927" y="105.225" rx="1.813" ry="1.813" style="fill:#ff7f2a;fill-opacity:1;fill-rule:nonzero;stroke:#d45500;stroke-width:.74403799;stroke-miterlimit:4;stroke-dasharray:none"/><rect width="6.19" height="6.19" x="87.405" y="118.637" rx="1.095" ry="1.095" style="fill:#ff7f2a;fill-opacity:1;fill-rule:nonzero;stroke:#d45500;stroke-width:.74403799;stroke-miterlimit:4;stroke-dasharray:none"/></g></svg>