<?xml version="1.0" encoding="UTF-8" standalone="no"?>
<svg
   xmlns:dc="http://purl.org/dc/elements/1.1/"
   xmlns:cc="http://creativecommons.org/ns#"
   xmlns:rdf="http://www.w3.org/1999/02/22-rdf-syntax-ns#"
   xmlns:svg="http://www.w3.org/2000/svg"
   xmlns="http://www.w3.org/2000/svg"
   xmlns:sodipodi="http://sodipodi.sourceforge.net/DTD/sodipodi-0.dtd"
   xmlns:inkscape="http://www.inkscape.org/namespaces/inkscape"
   version="1.1"
   viewBox="0 0 696 160"
   stroke-miterlimit="10"
   id="svg2"
   inkscape:version="0.91 r13725"
   sodipodi:docname="layout.svg"
   width="696"
   height="160"
   style="fill:none;stroke:none;stroke-linecap:square;stroke-miterlimit:10">
  <metadata
     id="metadata83">
    <rdf:RDF>
      <cc:Work
         rdf:about="">
        <dc:format>image/svg+xml</dc:format>
        <dc:type
           rdf:resource="http://purl.org/dc/dcmitype/StillImage" />
        <dc:title></dc:title>
      </cc:Work>
    </rdf:RDF>
  </metadata>
  <defs
     id="defs81" />
  <sodipodi:namedview
     pagecolor="#ffffff"
     bordercolor="#666666"
     borderopacity="1"
     objecttolerance="10"
     gridtolerance="10"
     guidetolerance="10"
     inkscape:pageopacity="0"
     inkscape:pageshadow="2"
     inkscape:window-width="1440"
     inkscape:window-height="851"
     id="namedview79"
     showgrid="false"
     fit-margin-top="0"
     fit-margin-left="0"
     fit-margin-right="0"
     fit-margin-bottom="0"
     showborder="true"
     inkscape:zoom="1.3111111"
     inkscape:cx="335.3753"
     inkscape:cy="115.77729"
     inkscape:window-x="0"
     inkscape:window-y="0"
     inkscape:window-maximized="1"
     inkscape:current-layer="svg2" />
  <clipPath
     id="p.0">
    <path
       d="M 0,0 960,0 960,720 0,720 0,0 Z"
       id="path5"
       inkscape:connector-curvature="0"
       style="clip-rule:nonzero" />
  </clipPath>
  <path
     style="fill:#000000;fill-opacity:0;fill-rule:nonzero"
     inkscape:connector-curvature="0"
     id="path9"
     d="m -176,-152 960,0 0,720 -960,0 z" />
  <path
     style="fill:#000000;fill-opacity:0;fill-rule:nonzero"
     inkscape:connector-curvature="0"
     id="path11"
     d="M 52,112 164,48" />
  <path
     style="fill-rule:evenodd;stroke:#595959;stroke-width:3;stroke-linecap:butt;stroke-linejoin:round"
     inkscape:connector-curvature="0"
     id="path13"
     d="M 52,112 155.07336,53.10092" />
  <path
     style="fill:#595959;fill-rule:evenodd;stroke:#595959;stroke-width:3;stroke-linecap:butt"
     inkscape:connector-curvature="0"
     id="path15"
     d="m 155.07336,53.10094 -1.25537,4.60309 6.37414,-7.52811 -9.72186,1.66963 z" />
  <path
     style="fill:#000000;fill-opacity:0;fill-rule:nonzero"
     inkscape:connector-curvature="0"
     id="path17"
     d="m 164,112 0,-64" />
  <path
     style="fill-rule:evenodd;stroke:#595959;stroke-width:3;stroke-linecap:butt;stroke-linejoin:round"
     inkscape:connector-curvature="0"
     id="path19"
     d="m 164,112 0,-53.71875" />
  <path
     style="fill:#595959;fill-rule:evenodd;stroke:#595959;stroke-width:3;stroke-linecap:butt"
     inkscape:connector-curvature="0"
     id="path21"
     d="m 164,58.28127 3.37375,3.37375 -3.37375,-9.2693 -3.37375,9.2693 z" />
  <path
     style="fill:#000000;fill-opacity:0;fill-rule:nonzero"
     inkscape:connector-curvature="0"
     id="path23"
     d="M 276,112 164,48" />
  <path
     style="fill-rule:evenodd;stroke:#595959;stroke-width:3;stroke-linecap:butt;stroke-linejoin:round"
     inkscape:connector-curvature="0"
     id="path25"
     d="M 276,112 172.92664,53.10092" />
  <path
     style="fill:#595959;fill-rule:evenodd;stroke:#595959;stroke-width:3;stroke-linecap:butt"
     inkscape:connector-curvature="0"
     id="path27"
     d="m 172.92664,53.10094 4.60309,-1.25539 -9.72186,-1.66963 6.37414,7.52811 z" />
  <path
     style="fill:#3c78d8;fill-rule:nonzero"
     inkscape:connector-curvature="0"
     id="path29"
     d="m 0,120 0,0 c 0,-4.41827 3.58173,-8 8,-8 l 88,0 c 2.12173,0 4.15656,0.84287 5.65686,2.34314 C 103.15714,115.84344 104,117.87827 104,120 l 0,32 c 0,4.41827 -3.58173,8 -8,8 l -88,0 c -4.41827,0 -8,-3.58173 -8,-8 z" />
  <path
     style="fill:#ffffff;fill-rule:nonzero"
     inkscape:connector-curvature="0"
     id="path31"
     d="m 38.79297,131.63873 q 0.59375,0 0.96875,-0.375 0.35937,-0.375 0.35937,-0.96875 0,-0.59375 -0.35937,-0.95313 -0.375,-0.375 -0.96875,-0.375 -0.59375,0 -0.96875,0.375 -0.375,0.35938 -0.375,0.95313 0,0.59375 0.375,0.96875 0.375,0.375 0.96875,0.375 z m 0,0.73437 q -0.89063,0 -1.48438,-0.59375 -0.59375,-0.59375 -0.59375,-1.48437 0,-0.89063 0.59375,-1.48438 0.59375,-0.59375 1.48438,-0.59375 0.89062,0 1.48437,0.59375 0.59375,0.59375 0.59375,1.48438 0,0.89062 -0.59375,1.48437 -0.59375,0.59375 -1.48437,0.59375 z m -5.04688,-0.65625 q 3.40625,3.03125 8.6875,7.5625 l -1.64062,1.48438 q -3.85938,-3.5625 -7.26563,-6.67188 -0.67187,-0.59375 -0.89062,-0.59375 -0.375,0 -0.89063,0.59375 -2.15625,2.51563 -4.15625,4.67188 l -1.42187,-1.64063 q 2.90625,-2.8125 5.5,-5.34375 0.4375,-0.4375 1.03125,-0.4375 0.59375,0 1.04687,0.375 z m 10.46094,5.10938 0,-1.625 16.54688,0 0,1.625 -16.54688,0 z m 33.39844,-2.14063 q -3.78125,6.07813 -11.71875,8.60938 -0.23437,0.89062 -0.75,0.0781 l -1.03125,-1.64062 q 8.07813,-1.78125 12.17188,-8.39063 l 1.32812,1.34375 z m -11.42187,2 q -2.23438,-1.64062 -3.71875,-2.375 l 1.10937,-1.5625 q 1.85938,0.96875 3.79688,2.375 l -1.1875,1.5625 z m 2.21875,-4.375 q -2,-1.42187 -3.70313,-2.375 l 0.95313,-1.5625 q 2.01562,1.10938 3.79687,2.375 l -1.04687,1.5625 z m 6.15625,-5.04687 q 1.26562,0.95312 2.53125,2.29687 l -0.96875,0.96875 q -1.32813,-1.48437 -2.51563,-2.375 l 0.95313,-0.89062 z m -1.78125,1.25 q 1.26562,1.04687 2.53125,2.375 l -0.96875,0.89062 q -1.26563,-1.32812 -2.59375,-2.4375 l 1.03125,-0.82812 z" />
  <path
     style="fill:#3c78d8;fill-rule:nonzero"
     inkscape:connector-curvature="0"
     id="path33"
     d="m 112,120 0,0 c 0,-4.41827 3.58173,-8 8,-8 l 88,0 c 2.12173,0 4.15656,0.84287 5.65686,2.34314 C 215.15714,115.84344 216,117.87827 216,120 l 0,32 c 0,4.41827 -3.58173,8 -8,8 l -88,0 c -4.41827,0 -8,-3.58173 -8,-8 z" />
  <path
     style="fill:#ffffff;fill-rule:nonzero"
     inkscape:connector-curvature="0"
     id="path35"
     d="m 150.79297,131.63873 q 0.59375,0 0.96875,-0.375 0.35938,-0.375 0.35938,-0.96875 0,-0.59375 -0.35938,-0.95313 -0.375,-0.375 -0.96875,-0.375 -0.59375,0 -0.96875,0.375 -0.375,0.35938 -0.375,0.95313 0,0.59375 0.375,0.96875 0.375,0.375 0.96875,0.375 z m 0,0.73437 q -0.89062,0 -1.48437,-0.59375 -0.59375,-0.59375 -0.59375,-1.48437 0,-0.89063 0.59375,-1.48438 0.59375,-0.59375 1.48437,-0.59375 0.89063,0 1.48438,0.59375 0.59375,0.59375 0.59375,1.48438 0,0.89062 -0.59375,1.48437 -0.59375,0.59375 -1.48438,0.59375 z m -5.04687,-0.65625 q 3.40625,3.03125 8.6875,7.5625 l -1.64063,1.48438 q -3.85937,-3.5625 -7.26562,-6.67188 -0.67188,-0.59375 -0.89063,-0.59375 -0.375,0 -0.89062,0.59375 -2.15625,2.51563 -4.15625,4.67188 l -1.42188,-1.64063 q 2.90625,-2.8125 5.5,-5.34375 0.4375,-0.4375 1.03125,-0.4375 0.59375,0 1.04688,0.375 z m 10.46093,5.10938 0,-1.625 16.54688,0 0,1.625 -16.54688,0 z m 33.39844,-2.14063 q -3.78125,6.07813 -11.71875,8.60938 -0.23437,0.89062 -0.75,0.0781 l -1.03125,-1.64062 q 8.07813,-1.78125 12.17188,-8.39063 l 1.32812,1.34375 z m -11.42187,2 q -2.23438,-1.64062 -3.71875,-2.375 l 1.10937,-1.5625 q 1.85938,0.96875 3.79688,2.375 l -1.1875,1.5625 z m 2.21875,-4.375 q -2,-1.42187 -3.70313,-2.375 l 0.95313,-1.5625 q 2.01562,1.10938 3.79687,2.375 l -1.04687,1.5625 z m 6.15625,-5.04687 q 1.26562,0.95312 2.53125,2.29687 l -0.96875,0.96875 q -1.32813,-1.48437 -2.51563,-2.375 l 0.95313,-0.89062 z m -1.78125,1.25 q 1.26562,1.04687 2.53125,2.375 l -0.96875,0.89062 q -1.26563,-1.32812 -2.59375,-2.4375 l 1.03125,-0.82812 z" />
  <path
     style="fill:#3c78d8;fill-rule:nonzero"
     inkscape:connector-curvature="0"
     id="path37"
     d="m 224,120 0,0 c 0,-4.41827 3.58173,-8 8,-8 l 88,0 c 2.12173,0 4.15656,0.84287 5.65686,2.34314 C 327.15714,115.84344 328,117.87827 328,120 l 0,32 c 0,4.41827 -3.58173,8 -8,8 l -88,0 c -4.41827,0 -8,-3.58173 -8,-8 z" />
  <path
     style="fill:#ffffff;fill-rule:nonzero"
     inkscape:connector-curvature="0"
     id="path39"
     d="m 262.79297,131.63873 q 0.59375,0 0.96875,-0.375 0.35938,-0.375 0.35938,-0.96875 0,-0.59375 -0.35938,-0.95313 -0.375,-0.375 -0.96875,-0.375 -0.59375,0 -0.96875,0.375 -0.375,0.35938 -0.375,0.95313 0,0.59375 0.375,0.96875 0.375,0.375 0.96875,0.375 z m 0,0.73437 q -0.89062,0 -1.48437,-0.59375 -0.59375,-0.59375 -0.59375,-1.48437 0,-0.89063 0.59375,-1.48438 0.59375,-0.59375 1.48437,-0.59375 0.89063,0 1.48438,0.59375 0.59375,0.59375 0.59375,1.48438 0,0.89062 -0.59375,1.48437 -0.59375,0.59375 -1.48438,0.59375 z m -5.04687,-0.65625 q 3.40625,3.03125 8.6875,7.5625 l -1.64063,1.48438 q -3.85937,-3.5625 -7.26562,-6.67188 -0.67188,-0.59375 -0.89063,-0.59375 -0.375,0 -0.89062,0.59375 -2.15625,2.51563 -4.15625,4.67188 l -1.42188,-1.64063 q 2.90625,-2.8125 5.5,-5.34375 0.4375,-0.4375 1.03125,-0.4375 0.59375,0 1.04688,0.375 z m 10.46093,5.10938 0,-1.625 16.54688,0 0,1.625 -16.54688,0 z m 33.39844,-2.14063 q -3.78125,6.07813 -11.71875,8.60938 -0.23437,0.89062 -0.75,0.0781 l -1.03125,-1.64062 q 8.07813,-1.78125 12.17188,-8.39063 l 1.32812,1.34375 z m -11.42187,2 q -2.23438,-1.64062 -3.71875,-2.375 l 1.10937,-1.5625 q 1.85938,0.96875 3.79688,2.375 l -1.1875,1.5625 z m 2.21875,-4.375 q -2,-1.42187 -3.70313,-2.375 l 0.95313,-1.5625 q 2.01562,1.10938 3.79687,2.375 l -1.04687,1.5625 z m 6.15625,-5.04687 q 1.26562,0.95312 2.53125,2.29687 l -0.96875,0.96875 q -1.32813,-1.48437 -2.51563,-2.375 l 0.95313,-0.89062 z m -1.78125,1.25 q 1.26562,1.04687 2.53125,2.375 l -0.96875,0.89062 q -1.26563,-1.32812 -2.59375,-2.4375 l 1.03125,-0.82812 z" />
  <path
     style="fill:#e06666;fill-rule:nonzero"
     inkscape:connector-curvature="0"
     id="path41"
     d="m 96,8 0,0 c 0,-4.41827 3.58173,-8 8,-8 l 120,0 c 2.12173,0 4.15656,0.84285 5.65686,2.34314 C 231.15714,3.84343 232,5.87827 232,8 l 0,32 c 0,4.41827 -3.58173,8 -8,8 l -120,0 c -4.41827,0 -8,-3.58173 -8,-8 z" />
  <path
     style="fill:#ffffff;fill-rule:nonzero"
     inkscape:connector-curvature="0"
     id="path43"
     d="m 128.3789,29.21687 q 6.82812,-1.26563 9.9375,-6.90625 l 1.26562,1.26562 q -3.5625,6.23438 -11.875,7.64063 l -1.1875,-0.89063 0.15625,-0.45312 0,-12.3125 1.625,0 q 0.67188,0.0781 0.0781,0.51562 l 0,11.14063 z m 13.35156,-3.71875 q 7.79688,-3.26563 11.8125,-9.20313 l 1.40625,1.1875 q 0.59375,0.45313 -0.51562,0.67188 -1.42188,1.85937 -3.64063,3.78125 l 0,10.09375 -1.70312,0 0,-8.6875 q -2.60938,2.01562 -6.09375,3.64062 l -1.26563,-1.48437 z m 23.61328,-2.15625 q 0.14063,5.64062 -4.82812,8.76562 l -1.26563,-1.40625 q 4.375,-2.375 4.375,-6.6875 l 0,-3.1875 1.5625,0 q 0.67188,0.0781 0.15625,0.51563 l 0,1.9375 q 2.67188,-2.01563 4.07813,-3.9375 l -12.09375,0.4375 -0.15625,-1.70313 13.51562,-0.375 0.51563,-0.14062 1.10937,1.32812 q 0.21875,0.29688 -0.375,0.23438 -2.21875,2.89062 -5.34375,5.40625 l -1.25,-1.1875 z m 23.89844,-2.89063 q 0,8.09375 -7.79687,11.95313 l -1.40625,-1.40625 q 7.1875,-3.26563 7.26562,-9.79688 l -10.3125,0 0.14063,4.375 -1.70313,0 -0.21875,-6.01562 5.85938,0 0,-3.70313 1.48437,0 q 0.89063,0.0625 0.21875,0.59375 l 0,3.10938 5.57813,0 0.89062,0.89062 z m 6.07422,1.5625 q 3.64063,1.03125 7.35938,2.8125 l -0.89063,1.71875 q -3.9375,-2.01562 -6.46875,-2.67187 l 0,7.71875 -1.70312,0 0,-14.84375 1.48437,0 q 0.89063,0.0625 0.21875,0.59375 l 0,4.67187 z" />
  <path
     style="fill:#000000;fill-opacity:0;fill-rule:nonzero"
     inkscape:connector-curvature="0"
     id="path45"
     d="M 420,112 532,48" />
  <path
     style="fill-rule:evenodd;stroke:#595959;stroke-width:3;stroke-linecap:butt;stroke-linejoin:round"
     inkscape:connector-curvature="0"
     id="path47"
     d="M 420,112 523.0733,53.10092" />
  <path
     style="fill:#595959;fill-rule:evenodd;stroke:#595959;stroke-width:3;stroke-linecap:butt"
     inkscape:connector-curvature="0"
     id="path49"
     d="m 523.07336,53.10094 -1.25537,4.60309 6.37414,-7.52811 -9.72186,1.66963 z" />
  <path
     style="fill:#000000;fill-opacity:0;fill-rule:nonzero"
     inkscape:connector-curvature="0"
     id="path51"
     d="m 532,112 0,-64" />
  <path
     style="fill-rule:evenodd;stroke:#595959;stroke-width:3;stroke-linecap:butt;stroke-linejoin:round"
     inkscape:connector-curvature="0"
     id="path53"
     d="m 532,112 0,-53.71875" />
  <path
     style="fill:#595959;fill-rule:evenodd;stroke:#595959;stroke-width:3;stroke-linecap:butt"
     inkscape:connector-curvature="0"
     id="path55"
     d="m 532,58.28127 3.37378,3.37375 -3.37378,-9.2693 -3.37378,9.2693 z" />
  <path
     style="fill:#000000;fill-opacity:0;fill-rule:nonzero"
     inkscape:connector-curvature="0"
     id="path57"
     d="M 644,112 532,48" />
  <path
     style="fill-rule:evenodd;stroke:#595959;stroke-width:3;stroke-linecap:butt;stroke-linejoin:round"
     inkscape:connector-curvature="0"
     id="path59"
     d="M 644,112 540.9267,53.10092" />
  <path
     style="fill:#595959;fill-rule:evenodd;stroke:#595959;stroke-width:3;stroke-linecap:butt"
     inkscape:connector-curvature="0"
     id="path61"
     d="m 540.92664,53.10094 4.60309,-1.25539 -9.72186,-1.66963 6.37414,7.52811 z" />
  <path
     style="fill:#3c78d8;fill-rule:nonzero"
     inkscape:connector-curvature="0"
     id="path63"
     d="m 368,120 0,0 c 0,-4.41827 3.58173,-8 8,-8 l 88,0 c 2.1217,0 4.15656,0.84287 5.65686,2.34314 C 471.15717,115.84344 472,117.87827 472,120 l 0,32 c 0,4.41827 -3.58173,8 -8,8 l -88,0 c -4.41827,0 -8,-3.58173 -8,-8 z" />
  <path
     style="fill:#ffffff;fill-rule:nonzero"
     inkscape:connector-curvature="0"
     id="path65"
     d="m 406.79297,131.63873 q 0.59375,0 0.96875,-0.375 0.35937,-0.375 0.35937,-0.96875 0,-0.59375 -0.35937,-0.95313 -0.375,-0.375 -0.96875,-0.375 -0.59375,0 -0.96875,0.375 -0.375,0.35938 -0.375,0.95313 0,0.59375 0.375,0.96875 0.375,0.375 0.96875,0.375 z m 0,0.73437 q -0.89063,0 -1.48438,-0.59375 -0.59375,-0.59375 -0.59375,-1.48437 0,-0.89063 0.59375,-1.48438 0.59375,-0.59375 1.48438,-0.59375 0.89062,0 1.48437,0.59375 0.59375,0.59375 0.59375,1.48438 0,0.89062 -0.59375,1.48437 -0.59375,0.59375 -1.48437,0.59375 z m -5.04688,-0.65625 q 3.40625,3.03125 8.6875,7.5625 l -1.64062,1.48438 q -3.85938,-3.5625 -7.26563,-6.67188 -0.67187,-0.59375 -0.89062,-0.59375 -0.375,0 -0.89063,0.59375 -2.15625,2.51563 -4.15625,4.67188 l -1.42187,-1.64063 q 2.90625,-2.8125 5.5,-5.34375 0.4375,-0.4375 1.03125,-0.4375 0.59375,0 1.04687,0.375 z m 10.46094,5.10938 0,-1.625 16.54688,0 0,1.625 -16.54688,0 z m 33.39844,-2.14063 q -3.78125,6.07813 -11.71875,8.60938 -0.23437,0.89062 -0.75,0.0781 l -1.03125,-1.64062 q 8.07813,-1.78125 12.17188,-8.39063 l 1.32812,1.34375 z m -11.42187,2 q -2.23438,-1.64062 -3.71875,-2.375 l 1.10937,-1.5625 q 1.85938,0.96875 3.79688,2.375 l -1.1875,1.5625 z m 2.21875,-4.375 q -2,-1.42187 -3.70313,-2.375 l 0.95313,-1.5625 q 2.01562,1.10938 3.79687,2.375 l -1.04687,1.5625 z m 6.15625,-5.04687 q 1.26562,0.95312 2.53125,2.29687 l -0.96875,0.96875 q -1.32813,-1.48437 -2.51563,-2.375 l 0.95313,-0.89062 z m -1.78125,1.25 q 1.26562,1.04687 2.53125,2.375 l -0.96875,0.89062 q -1.26563,-1.32812 -2.59375,-2.4375 l 1.03125,-0.82812 z" />
  <path
     style="fill:#3c78d8;fill-rule:nonzero"
     inkscape:connector-curvature="0"
     id="path67"
     d="m 480,120 0,0 c 0,-4.41827 3.58173,-8 8,-8 l 88,0 c 2.1217,0 4.15656,0.84287 5.65686,2.34314 C 583.15717,115.84344 584,117.87827 584,120 l 0,32 c 0,4.41827 -3.58173,8 -8,8 l -88,0 c -4.41827,0 -8,-3.58173 -8,-8 z" />
  <path
     style="fill:#ffffff;fill-rule:nonzero"
     inkscape:connector-curvature="0"
     id="path69"
     d="m 518.79297,131.63873 q 0.59375,0 0.96875,-0.375 0.35937,-0.375 0.35937,-0.96875 0,-0.59375 -0.35937,-0.95313 -0.375,-0.375 -0.96875,-0.375 -0.59375,0 -0.96875,0.375 -0.375,0.35938 -0.375,0.95313 0,0.59375 0.375,0.96875 0.375,0.375 0.96875,0.375 z m 0,0.73437 q -0.89063,0 -1.48438,-0.59375 -0.59375,-0.59375 -0.59375,-1.48437 0,-0.89063 0.59375,-1.48438 0.59375,-0.59375 1.48438,-0.59375 0.89062,0 1.48437,0.59375 0.59375,0.59375 0.59375,1.48438 0,0.89062 -0.59375,1.48437 -0.59375,0.59375 -1.48437,0.59375 z m -5.04688,-0.65625 q 3.40625,3.03125 8.6875,7.5625 l -1.64062,1.48438 q -3.85938,-3.5625 -7.26563,-6.67188 -0.67187,-0.59375 -0.89062,-0.59375 -0.375,0 -0.89063,0.59375 -2.15625,2.51563 -4.15625,4.67188 l -1.42187,-1.64063 q 2.90625,-2.8125 5.5,-5.34375 0.4375,-0.4375 1.03125,-0.4375 0.59375,0 1.04687,0.375 z m 10.46094,5.10938 0,-1.625 16.54688,0 0,1.625 -16.54688,0 z m 33.39844,-2.14063 q -3.78125,6.07813 -11.71875,8.60938 -0.23437,0.89062 -0.75,0.0781 l -1.03125,-1.64062 q 8.07813,-1.78125 12.17188,-8.39063 l 1.32812,1.34375 z m -11.42187,2 q -2.23438,-1.64062 -3.71875,-2.375 l 1.10937,-1.5625 q 1.85938,0.96875 3.79688,2.375 l -1.1875,1.5625 z m 2.21875,-4.375 q -2,-1.42187 -3.70313,-2.375 l 0.95313,-1.5625 q 2.01562,1.10938 3.79687,2.375 l -1.04687,1.5625 z m 6.15625,-5.04687 q 1.26562,0.95312 2.53125,2.29687 l -0.96875,0.96875 q -1.32813,-1.48437 -2.51563,-2.375 l 0.95313,-0.89062 z m -1.78125,1.25 q 1.26562,1.04687 2.53125,2.375 l -0.96875,0.89062 q -1.26563,-1.32812 -2.59375,-2.4375 l 1.03125,-0.82812 z" />
  <path
     style="fill:#3c78d8;fill-rule:nonzero"
     inkscape:connector-curvature="0"
     id="path71"
     d="m 592,120 0,0 c 0,-4.41827 3.58173,-8 8,-8 l 88,0 c 2.1217,0 4.15656,0.84287 5.65686,2.34314 C 695.15717,115.84344 696,117.87827 696,120 l 0,32 c 0,4.41827 -3.58173,8 -8,8 l -88,0 c -4.41827,0 -8,-3.58173 -8,-8 z" />
  <path
     style="fill:#ffffff;fill-rule:nonzero"
     inkscape:connector-curvature="0"
     id="path73"
     d="m 630.79297,131.63873 q 0.59375,0 0.96875,-0.375 0.35937,-0.375 0.35937,-0.96875 0,-0.59375 -0.35937,-0.95313 -0.375,-0.375 -0.96875,-0.375 -0.59375,0 -0.96875,0.375 -0.375,0.35938 -0.375,0.95313 0,0.59375 0.375,0.96875 0.375,0.375 0.96875,0.375 z m 0,0.73437 q -0.89063,0 -1.48438,-0.59375 -0.59375,-0.59375 -0.59375,-1.48437 0,-0.89063 0.59375,-1.48438 0.59375,-0.59375 1.48438,-0.59375 0.89062,0 1.48437,0.59375 0.59375,0.59375 0.59375,1.48438 0,0.89062 -0.59375,1.48437 -0.59375,0.59375 -1.48437,0.59375 z m -5.04688,-0.65625 q 3.40625,3.03125 8.6875,7.5625 l -1.64062,1.48438 q -3.85938,-3.5625 -7.26563,-6.67188 -0.67187,-0.59375 -0.89062,-0.59375 -0.375,0 -0.89063,0.59375 -2.15625,2.51563 -4.15625,4.67188 l -1.42187,-1.64063 q 2.90625,-2.8125 5.5,-5.34375 0.4375,-0.4375 1.03125,-0.4375 0.59375,0 1.04687,0.375 z m 10.46094,5.10938 0,-1.625 16.54688,0 0,1.625 -16.54688,0 z m 33.39844,-2.14063 q -3.78125,6.07813 -11.71875,8.60938 -0.23437,0.89062 -0.75,0.0781 l -1.03125,-1.64062 q 8.07813,-1.78125 12.17188,-8.39063 l 1.32812,1.34375 z m -11.42187,2 q -2.23438,-1.64062 -3.71875,-2.375 l 1.10937,-1.5625 q 1.85938,0.96875 3.79688,2.375 l -1.1875,1.5625 z m 2.21875,-4.375 q -2,-1.42187 -3.70313,-2.375 l 0.95313,-1.5625 q 2.01562,1.10938 3.79687,2.375 l -1.04687,1.5625 z m 6.15625,-5.04687 q 1.26562,0.95312 2.53125,2.29687 l -0.96875,0.96875 q -1.32813,-1.48437 -2.51563,-2.375 l 0.95313,-0.89062 z m -1.78125,1.25 q 1.26562,1.04687 2.53125,2.375 l -0.96875,0.89062 q -1.26563,-1.32812 -2.59375,-2.4375 l 1.03125,-0.82812 z" />
  <path
     style="fill:#e06666;fill-rule:nonzero"
     inkscape:connector-curvature="0"
     id="path75"
     d="m 464,8 0,0 c 0,-4.41827 3.58173,-8 8,-8 l 120,0 c 2.1217,0 4.15656,0.84285 5.65686,2.34314 C 599.15717,3.84343 600,5.87827 600,8 l 0,32 c 0,4.41827 -3.58173,8 -8,8 l -120,0 c -4.41827,0 -8,-3.58173 -8,-8 z" />
  <path
     style="fill:#ffffff;fill-rule:nonzero"
     inkscape:connector-curvature="0"
     id="path77"
     d="m 496.3789,29.21687 q 6.82813,-1.26563 9.9375,-6.90625 l 1.26563,1.26562 q -3.5625,6.23438 -11.875,7.64063 l -1.1875,-0.89063 0.15625,-0.45312 0,-12.3125 1.625,0 q 0.67187,0.0781 0.0781,0.51562 l 0,11.14063 z m 13.35156,-3.71875 q 7.79688,-3.26563 11.8125,-9.20313 l 1.40625,1.1875 q 0.59375,0.45313 -0.51562,0.67188 -1.42188,1.85937 -3.64063,3.78125 l 0,10.09375 -1.70312,0 0,-8.6875 q -2.60938,2.01562 -6.09375,3.64062 l -1.26563,-1.48437 z m 23.61328,-2.15625 q 0.14063,5.64062 -4.82812,8.76562 l -1.26563,-1.40625 q 4.375,-2.375 4.375,-6.6875 l 0,-3.1875 1.5625,0 q 0.67188,0.0781 0.15625,0.51563 l 0,1.9375 q 2.67188,-2.01563 4.07813,-3.9375 l -12.09375,0.4375 -0.15625,-1.70313 13.51562,-0.375 0.51563,-0.14062 1.10937,1.32812 q 0.21875,0.29688 -0.375,0.23438 -2.21875,2.89062 -5.34375,5.40625 l -1.25,-1.1875 z m 23.89844,-2.89063 q 0,8.09375 -7.79687,11.95313 l -1.40625,-1.40625 q 7.1875,-3.26563 7.26562,-9.79688 l -10.3125,0 0.14063,4.375 -1.70313,0 -0.21875,-6.01562 5.85938,0 0,-3.70313 1.48437,0 q 0.89063,0.0625 0.21875,0.59375 l 0,3.10938 5.57813,0 0.89062,0.89062 z m 6.07422,1.5625 q 3.64063,1.03125 7.35938,2.8125 l -0.89063,1.71875 q -3.9375,-2.01562 -6.46875,-2.67187 l 0,7.71875 -1.70312,0 0,-14.84375 1.48437,0 q 0.89063,0.0625 0.21875,0.59375 l 0,4.67187 z" />
</svg>
