<?xml version="1.0" encoding="UTF-8" standalone="no"?>
<svg
   height="124"
   width="124"
   version="1.1"
   id="svg6"
   sodipodi:docname="_index.svg"
   inkscape:version="1.1.2 (b8e25be8, 2022-02-05)"
   xmlns:inkscape="http://www.inkscape.org/namespaces/inkscape"
   xmlns:sodipodi="http://sodipodi.sourceforge.net/DTD/sodipodi-0.dtd"
   xmlns="http://www.w3.org/2000/svg"
   xmlns:svg="http://www.w3.org/2000/svg">
  <defs
     id="defs10" />
  <sodipodi:namedview
     id="namedview8"
     pagecolor="#ffffff"
     bordercolor="#666666"
     borderopacity="1.0"
     inkscape:pageshadow="2"
     inkscape:pageopacity="0.0"
     inkscape:pagecheckerboard="0"
     showgrid="false"
     inkscape:zoom="5.7983871"
     inkscape:cx="38.803894"
     inkscape:cy="22.67872"
     inkscape:window-width="1685"
     inkscape:window-height="941"
     inkscape:window-x="0"
     inkscape:window-y="38"
     inkscape:window-maximized="0"
     inkscape:current-layer="svg6" />
  <path
     d="m 62.081989,7.3623932 c -30.016761,0 -54.4471341,24.4418908 -54.4471341,54.4471338 0,30.00524 24.4418911,54.447133 54.4471341,54.447133 30.00524,0 54.447131,-24.441893 54.447131,-54.447133 0,-30.005243 -24.441891,-54.4471338 -54.447131,-54.4471338 z m -0.08063,4.8376978 a 3.5706815,3.5821998 0 0 1 3.478535,3.582199 3.5822,3.5822 0 0 1 -7.1644,0 3.5821998,3.5821998 0 0 1 3.685865,-3.582199 z m 8.201049,5.897383 a 44.080639,44.080639 0 0 1 30.178022,21.493199 l -4.227231,9.537175 c -0.72565,1.647121 0.023,3.5822 1.65864,4.319373 l 8.131941,3.605237 a 44.080639,44.080639 0 0 1 0.0922,7.648169 h -4.52671 c -0.44921,0 -0.6335,0.299477 -0.6335,0.737173 v 2.073299 c 0,4.883771 -2.752881,5.954975 -5.171731,6.219897 -2.30367,0.264921 -4.84922,-0.96754 -5.171733,-2.372776 -1.359163,-7.636651 -3.616755,-9.260735 -7.187436,-12.082725 4.434556,-2.810472 9.041889,-6.968588 9.041889,-12.520422 0,-6.001049 -4.112045,-9.77906 -6.910999,-11.633511 -3.939268,-2.591623 -8.293196,-3.109948 -9.468065,-3.109948 h -46.76441 a 44.080639,44.080639 0 0 1 24.660739,-13.91414 l 5.517279,5.782201 c 1.24398,1.301571 3.30576,1.359162 4.607331,0.103665 z M 19.2914,44.612664 a 3.5821998,3.5821998 0 0 1 3.478535,3.5822 3.5821998,3.5821998 0 0 1 -7.164399,0 3.5821998,3.5821998 0 0 1 3.685864,-3.5822 z m 85.4084,0.161257 a 3.5821998,3.5821998 0 0 1 3.47854,3.5822 3.5822,3.5822 0 0 1 -7.1644,0 3.5821998,3.5821998 0 0 1 3.68586,-3.5822 z m -78.658658,0.575916 h 6.242934 V 73.500629 H 19.683026 A 44.080639,44.080639 0 0 1 18.254753,56.672353 l 7.717279,-3.432462 c 1.647121,-0.737173 2.395812,-2.660733 1.65864,-4.307854 z m 26.054457,0.299477 H 66.96576 c 0.771728,0 5.425132,0.886911 5.425132,4.376964 0,2.8911 -3.570681,3.92775 -6.507855,3.92775 H 52.084081 Z m 0,20.226183 h 11.391626 c 1.036649,0 5.563352,0.299476 7.003143,6.081677 0.449215,1.773822 1.451309,7.556022 2.130891,9.410473 0.679581,2.073299 3.432461,6.219897 6.369635,6.219897 h 18.590585 a 44.080639,44.080639 0 0 1 -4.07749,4.722513 l -7.567544,-1.624083 c -1.762304,-0.380105 -3.501571,0.748693 -3.881676,2.510993 l -1.796859,8.385343 a 44.080639,44.080639 0 0 1 -36.754983,-0.17277 l -1.796859,-8.385343 c -0.380105,-1.76231 -2.107854,-2.891103 -3.870158,-2.510998 l -7.406285,1.589528 A 44.080639,44.080639 0 0 1 26.60554,87.587544 h 36.01781 c 0.403142,0 0.679582,-0.06911 0.679582,-0.449215 v -12.73927 c 0,-0.368587 -0.27644,-0.449215 -0.679582,-0.449215 H 52.084081 Z m -16.620946,29.17592 a 3.5821998,3.5821998 0 0 1 3.478534,3.5822 3.5821998,3.5821998 0 0 1 -7.164399,0 3.5821998,3.5821998 0 0 1 3.685865,-3.5822 z m 53.041898,0.16126 a 3.5821998,3.5821998 0 0 1 3.478538,3.5822 3.5822015,3.5822015 0 0 1 -7.164403,0 3.5821998,3.5821998 0 0 1 3.685865,-3.5822 z"
     id="path2"
     style="stroke-width:1.15183" />
  <path
     d="M 113.48829,61.809527 A 51.406296,51.406296 0 0 1 62.081989,113.21583 51.406296,51.406296 0 0 1 10.675693,61.809527 51.406296,51.406296 0 0 1 62.081989,10.403231 51.406296,51.406296 0 0 1 113.48829,61.809527 Z m -0.96754,-4.964399 8.01675,4.964399 -8.01675,4.964399 6.88796,6.438745 -8.82304,3.30576 5.50576,7.659688 -9.31833,1.520419 3.91623,8.592669 -9.43351,-0.33403 2.16545,9.191633 -9.191631,-2.16545 0.33403,9.43351 -8.592669,-3.91623 -1.520419,9.31833 -7.659688,-5.50576 -3.30576,8.82304 -6.438745,-6.88796 -4.964399,8.01675 -4.964399,-8.01675 -6.438745,6.88796 -3.30576,-8.82304 -7.659688,5.50576 -1.520419,-9.31833 -8.592672,3.91623 0.334031,-9.43351 -9.191625,2.16545 2.165445,-9.191633 -9.43351,0.33403 3.916231,-8.592669 -9.3183271,-1.520419 5.5057611,-7.659688 -8.8230391,-3.30576 6.8879601,-6.438745 -8.0167561,-4.964399 8.0167561,-4.964399 -6.8879601,-6.438745 8.8230391,-3.30576 -5.5057611,-7.659688 9.3183271,-1.520419 -3.916231,-8.592672 9.43351,0.334031 -2.165445,-9.191625 9.191625,2.165445 -0.334031,-9.43351 8.592672,3.916231 1.520419,-9.3183268 7.659688,5.5057608 3.30576,-8.8230388 6.438745,6.8879598 4.964399,-8.0167558 4.964399,8.0167558 6.438745,-6.8879598 3.30576,8.8230388 7.659688,-5.5057608 1.520419,9.3183268 8.592669,-3.916231 -0.33403,9.43351 9.191631,-2.165445 -2.16545,9.191625 9.43351,-0.334031 -3.91623,8.592672 9.31833,1.520419 -5.50576,7.659688 8.82304,3.30576 z"
     fill-rule="evenodd"
     stroke="#000000"
     stroke-linecap="round"
     stroke-linejoin="round"
     stroke-width="3"
     id="path4" />
</svg>
