<svg xmlns="http://www.w3.org/2000/svg" viewBox="224 140 550 550" style="enable-background:new 244 180.44 512 512" xml:space="preserve"><g transform="translate(413.555 -336.957) scale(1.32125)"><path d="M-100.2 678.04c-13.28 0-26.94 10.64-26.94 29.28 0 17.04 12.01 29.07 26.94 29.07 12.33 0 17.82-8.28 17.82-8.28v3.61c0 1.71 1.61 3.61 3.61 3.61h8.91v-56.01h-12.52v7.11c0-.02-5.54-8.39-17.82-8.39zm2.23 11.45c10.94 0 16.67 9.62 16.67 17.82 0 9.14-6.81 17.82-16.65 17.82-8.22 0-16.46-6.66-16.46-17.93 0-10.19 7.09-17.71 16.44-17.71zM-52.47 735.32c-1.92 0-3.61-1.38-3.61-3.61v-52.4h12.52v6.93c2.84-4.26 8.38-8.22 16.88-8.22 13.9 0 21.3 11.08 21.3 21.44v35.85h-8.7c-2.28 0-3.82-1.91-3.82-3.82v-29.28c0-5.74-3.52-12.72-11.66-12.72-8.78 0-14.01 8.3-14.01 16.12v29.7h-8.9zM31.12 678.04c-13.28 0-26.94 10.64-26.94 29.28 0 17.04 12.01 29.07 26.94 29.07 12.33 0 17.82-8.28 17.82-8.28v3.61c0 1.71 1.61 3.61 3.61 3.61h8.91V651.3H48.94v35.11s-5.54-8.37-17.82-8.37zm2.23 11.45c10.94 0 16.67 9.62 16.67 17.82 0 9.14-6.81 17.82-16.65 17.82-8.22 0-16.46-6.66-16.46-17.93 0-10.19 7.09-17.71 16.44-17.71zM78.85 735.32c-1.92 0-3.61-1.38-3.61-3.61v-52.4h12.52v9.34c2.15-5.23 6.8-9.97 15.06-9.97 2.3 0 4.46.42 4.46.42v12.94s-2.69-1.06-5.94-1.06c-8.78 0-13.58 8.3-13.58 16.11v28.23h-8.91zM183.23 735.32c-1.92 0-3.61-1.38-3.61-3.61v-52.4h12.52v56.01h-8.91zM228.84 678.04c-13.28 0-26.94 10.64-26.94 29.28 0 17.04 12.01 29.07 26.94 29.07 12.33 0 17.82-8.28 17.82-8.28v3.61c0 1.71 1.61 3.61 3.61 3.61h8.91V651.3h-12.52v35.11c.01 0-5.53-8.37-17.82-8.37zm2.23 11.45c10.94 0 16.67 9.62 16.67 17.82 0 9.14-6.81 17.82-16.65 17.82-8.22 0-16.46-6.66-16.46-17.93.01-10.19 7.1-17.71 16.44-17.71z"/><circle cx="185.79" cy="658.95" r="8.28"/><path d="M140.29 678.01c-13.91 0-29.2 10.39-29.2 29.2 0 17.14 13.02 29.17 29.17 29.17 19.9 0 29.62-16 29.62-29.06 0-16.03-12.51-29.31-29.59-29.31zm.05 11.7c9.62 0 16.8 7.75 16.8 17.54 0 9.96-7.62 17.64-16.77 17.64-8.49 0-16.75-6.91-16.75-17.48-.01-10.73 7.85-17.7 16.72-17.7z"/></g><path d="m692.33 538.54 42.31-73.3c2.39-4.11.95-9.33-3.11-11.72-4.05-2.39-9.33-1-11.66 3.11L677 530.87c-32.71-14.94-69.52-23.27-109.12-23.27-39.59 0-76.41 8.33-109.12 23.27l-42.87-74.24a8.55 8.55 0 0 0-11.72-3.11 8.55 8.55 0 0 0-3.11 11.72l42.31 73.3C370.43 578.08 321 651.93 312.84 738.39h510.1c-8.17-86.46-57.59-160.31-130.61-199.85zM450.78 666.76c-11.83 0-21.38-9.61-21.38-21.38 0-11.83 9.61-21.38 21.38-21.38 11.83 0 21.38 9.61 21.38 21.38.05 11.77-9.56 21.38-21.38 21.38zm234.17 0c-11.83 0-21.38-9.61-21.38-21.38 0-11.83 9.61-21.38 21.38-21.38 11.83 0 21.38 9.61 21.38 21.38.05 11.77-9.56 21.38-21.38 21.38z" style="fill:#32de84" transform="translate(-66.971 -261.917)"/></svg>