<?xml version="1.0" encoding="utf-8"?>
<!-- Generator: Adobe Illustrator 16.0.0, SVG Export Plug-In . SVG Version: 6.00 Build 0)  -->
<!DOCTYPE svg PUBLIC "-//W3C//DTD SVG 1.1//EN" "http://www.w3.org/Graphics/SVG/1.1/DTD/svg11.dtd">
<svg version="1.1" id="Layer_1" xmlns="http://www.w3.org/2000/svg" xmlns:xlink="http://www.w3.org/1999/xlink" x="0px" y="0px"
	 width="247.56px" height="250px" viewBox="0 0 247.56 250" enable-background="new 0 0 247.56 250" xml:space="preserve">
<g>
	<g>
		<path fill="#3386B9" d="M247.391,17.93c-1.785-1.464-15.814-8.987-15.814-8.987l-14.97,8.698l-0.009-0.005l14.972-8.696
			L216.603,0.02l-0.005,17.616l-15.612-8.739c0,0-12.772,7.465-18.973,11.044c-7.806,4.504-26.949,15.903-26.949,15.903v16.833
			l-15.771,41.09v22.312l-11.069,6.46l-4.405,11.521L92.78,53.542l0.005-17.658L30.928,0L0.03,17.887L0,17.879v18.196l19.27,46.411
			l11.709,6.897l0.01,21.166L77.41,223.298l46.393,26.55V250l46.332-26.812L247.56,35.706L247.391,17.93"/>
		<path fill="#3386B9" d="M123.837,249.867L77.41,223.298L30.989,110.549l-0.01-21.166L19.27,82.487L0,36.076V17.879l15.247,8.89
			v17.913l15.759,9.146l0.002-18.018l30.79,17.815l1.485,17.636l44.762,116.186l31.106,18.121v35.535l-15.357-9.034L123.837,249.867
			"/>
		<path fill="#62A5CE" d="M92.78,53.542l31.038,80.517l-0.064,44.353l-15.732,8.948L63.283,71.132l-1.485-17.507l30.988-17.741
			L92.78,53.542"/>
		<path fill="#62A5CE" d="M15.247,26.769v17.913l15.761-8.872L15.247,26.769"/>
		<path fill="#EAE9E6" d="M31.006,53.828l0.002-18.018l-15.761,8.872L31.006,53.828"/>
		<path fill="#3386B9" d="M123.754,178.412l15.516,8.878l17.275-43.374l13.305,7.917v-41.57l4.243-10.036l11.328,6.633V89.287
			l-15.42-8.959l15.506-9.001l-15.248-8.787l-0.04-17.86l-15.155-8.836v16.833l-15.771,41.09v22.312l-11.069,6.46l-4.405,11.521
			L123.754,178.412"/>
		<path fill="#62A5CE" d="M123.542,196.569l15.609,8.999l-0.077,35.543l31.062-17.922L247.56,35.706l-0.169-17.775l-46.405,26.749
			v35.687l-15.564,8.92v17.573l-11.328-6.633l-4.243,10.036v41.483l-21.557,12.676l-9.023,22.868L123.542,196.569"/>
		<path fill="#EAE9E6" d="M61.7,71.455l15.57-9.045v17.896L61.7,71.455"/>
		<path fill="#3386B9" d="M77.27,80.306l15.44,8.722V71.455L77.27,62.41V80.306"/>
		<path fill="#62A5CE" d="M46.367,115.838v18.025l15.589-8.971L46.367,115.838"/>
		<path fill="#EAE9E6" d="M77.517,133.948l-15.644,9.107l-15.506-9.191l15.589-8.971L77.517,133.948"/>
		<path fill="#62A5CE" d="M77.306,187.491v18.178l15.67-9.061L77.306,187.491"/>
		<path fill="#EAE9E6" d="M108.076,223.105l15.784,9.174l0.057-18.462L108.076,223.105"/>
		<path fill="#62A5CE" d="M123.803,250l0.057-17.722l15.214,8.832L123.803,250"/>
		<path fill="#EAE9E6" d="M123.754,178.412l-15.732,8.948l15.519,9.209l15.729-9.279L123.754,178.412"/>
		<path fill="#3386B9" d="M200.986,80.366V44.679l-15.364-8.746v17.78l-15.362,8.827L200.986,80.366"/>
		<path fill="#EAE9E6" d="M170.001,80.328l15.506-9.001l15.479,9.04l-15.564,8.92L170.001,80.328"/>
		<path fill="#62A5CE" d="M170.259,62.54l15.362-8.827v-17.78l-15.402,8.746L170.259,62.54"/>
		<path fill="#3386B9" d="M216.598,17.636l0.005-17.617l14.967,8.919L216.598,17.636"/>
		<path fill="#EAE9E6" d="M247.391,17.93l-46.405,26.749l-15.364-8.746l-15.402,8.746l-15.155-8.836
			c0,0,19.144-11.399,26.949-15.903c6.2-3.579,18.973-11.044,18.973-11.044l15.621,8.744l14.97-8.698
			C231.577,8.943,245.606,16.466,247.391,17.93C243.17,20.396,247.391,17.93,247.391,17.93"/>
		<path fill="#EAE9E6" d="M92.786,35.884L61.798,53.625L0.03,17.887L30.928,0L92.786,35.884"/>
		<path fill="#3386B9" d="M231.813,44.272V26.91l-15.098,8.712L231.813,44.272"/>
		<path fill="#3386B9" d="M186.047,124.989l15.023-8.619v17.286L186.047,124.989"/>
		<path fill="#EAE9E6" d="M154.652,196.45v17.913l15.649-9.053L154.652,196.45"/>
		<path fill="#3386B9" d="M170.399,205.31l-0.194-17.769l-15.553,8.908L170.399,205.31"/>
	</g>
</g>
</svg>
