<?xml version="1.0" encoding="UTF-8"?>
<!DOCTYPE svg PUBLIC "-//W3C//DTD SVG 1.1//EN" "http://www.w3.org/Graphics/SVG/1.1/DTD/svg11.dtd">
<svg version="1.1" xmlns="http://www.w3.org/2000/svg" xmlns:xlink="http://www.w3.org/1999/xlink" x="0" y="0" width="314" height="218" viewBox="0, 0, 314, 218">
  <defs>
    <clipPath id="Clip_1">
      <path d="M942,1012 L1098,1012 L1098,1076 L942,1076 z M1092,1020 L948,1020 L948,1068 L1092,1068 L1092,1020 z"/>
    </clipPath>
    <filter id="Shadow_2">
      <feGaussianBlur in="SourceAlpha" stdDeviation="2.5"/>
      <feOffset dx="0" dy="2" result="offsetblur"/>
      <feFlood flood-color="#000000"/>
      <feComposite in2="offsetblur" operator="in"/>
    </filter>
  </defs>
  <g id="レイヤー_1" transform="translate(-863, -935)">
    <text transform="matrix(1, 0, 0, 1, 1020, 960)">
      <tspan x="-114.016" y="4" font-family="Arial-BoldMT" font-size="18" fill="#F42A79">sidebar</tspan>
      <tspan x="-49.988" y="4" font-family="Arial-BoldMT" font-size="18" fill="#000000"> </tspan>
      <tspan x="-44.987" y="4" font-family="HiraginoSans-W6" font-size="18" fill="#000000">＞</tspan>
      <tspan x="-26.987" y="4" font-family="Arial-BoldMT" font-size="18" fill="#F42A79"> </tspan>
      <tspan x="-21.986" y="4" font-family="Arial-BoldMT" font-size="18" fill="#3866FF">main</tspan>
      <tspan x="20.026" y="4" font-family="Arial-BoldMT" font-size="18" fill="#000000"> </tspan>
      <tspan x="25.027" y="4" font-family="HiraginoSans-W6" font-size="18" fill="#000000">＞</tspan>
      <tspan x="43.027" y="4" font-family="Arial-BoldMT" font-size="18" fill="#000000"> </tspan>
      <tspan x="48.028" y="4" font-family="Arial-BoldMT" font-size="18" fill="#009916">window</tspan>
    </text>
    <g>
      <path d="M972.5,996.5 L1032.5,996.5 L1032.5,1056.5 L972.5,1056.5 L972.5,996.5 z" fill="#3866FF"/>
      <path d="M972.5,996.5 L1032.5,996.5 L1032.5,1056.5 L972.5,1056.5 L972.5,996.5 z" fill-opacity="0" stroke="#808080" stroke-width="1"/>
    </g>
    <g>
      <path d="M1032.5,984.5 L1068.5,984.5 L1068.5,1092.5 L1032.5,1092.5 L1032.5,984.5 z" fill="#F42A79"/>
      <path d="M1032.5,984.5 L1068.5,984.5 L1068.5,1092.5 L1032.5,1092.5 L1032.5,984.5 z" fill-opacity="0" stroke="#808080" stroke-width="1"/>
    </g>
    <g opacity="0.3">
      <path d="M1092,1020 L1092,1068 L948,1068 L948,1020 L1092,1020 z" clip-path="url(#Clip_1)" filter="url(#Shadow_2)" fill="rgba(0,0,0,0.75)"/>
      <path d="M948,1020 L1092,1020 L1092,1068 L948,1068 L948,1020 z" fill="#00EE88"/>
    </g>
    <g>
      <path d="M972.5,984.5 L1068.5,984.5 L1068.5,996.5 L972.5,996.5 L972.5,984.5 z" fill="#808080"/>
      <path d="M972.5,984.5 L1068.5,984.5 L1068.5,996.5 L972.5,996.5 L972.5,984.5 z" fill-opacity="0" stroke="#808080" stroke-width="1"/>
    </g>
    <g>
      <path d="M972.5,1080.5 L1068.5,1080.5 L1068.5,1092.5 L972.5,1092.5 L972.5,1080.5 z" fill="#808080"/>
      <path d="M972.5,1080.5 L1068.5,1080.5 L1068.5,1092.5 L972.5,1092.5 L972.5,1080.5 z" fill-opacity="0" stroke="#808080" stroke-width="1"/>
    </g>
    <text transform="matrix(1, 0, 0, 1, 1020, 1125)">
      <tspan x="-96.508" y="-5" font-family="Arial-BoldMT" font-size="18" fill="#3866FF">main</tspan>
      <tspan x="-54.497" y="-5" font-family="Arial-BoldMT" font-size="18" fill="#2B2B2B"> → </tspan>
      <tspan x="-26.495" y="-5" font-family="Arial-BoldMT" font-size="18" fill="#2B2B2B">position:</tspan>
      <tspan x="49.487" y="-5" font-family="Arial-BoldMT" font-size="18" fill="#EE0000">static</tspan>
      <tspan x="-139.03" y="16" font-family="Arial-BoldMT" font-size="18" fill="#F42A79">sidebar</tspan>
      <tspan x="-75.001" y="16" font-family="Arial-BoldMT" font-size="18" fill="#2B2B2B"> → position:static(sticky)</tspan>
    </text>
    <path d="M864.5,936.5 L1176.5,936.5 L1176.5,1152.5 L864.5,1152.5 L864.5,936.5 z" fill-opacity="0" stroke="#2B2B2B" stroke-width="1"/>
  </g>
</svg>
