<?xml version="1.0" encoding="UTF-8"?>
<!DOCTYPE svg PUBLIC "-//W3C//DTD SVG 1.1//EN" "http://www.w3.org/Graphics/SVG/1.1/DTD/svg11.dtd">
<svg version="1.1" xmlns="http://www.w3.org/2000/svg" xmlns:xlink="http://www.w3.org/1999/xlink" x="0" y="0" width="271" height="242" viewBox="0, 0, 271, 242">
  <g id="レイヤー_1" transform="translate(-114, -359)">
    <g>
      <path d="M144.5,360.5 L360.5,360.5 L360.5,600.5 L144.5,600.5 L144.5,360.5 z" fill="#FFFFFF"/>
      <path d="M144.5,360.5 L360.5,360.5 L360.5,600.5 L144.5,600.5 L144.5,360.5 z" fill-opacity="0" stroke="#808080" stroke-width="1"/>
    </g>
    <g opacity="0.42">
      <path d="M120.5,420.5 L384.5,420.5 L384.5,564.5 L120.5,564.5 L120.5,420.5 z" fill="#00EE88"/>
      <path d="M120.5,420.5 L384.5,420.5 L384.5,564.5 L120.5,564.5 L120.5,420.5 z" fill-opacity="0" stroke="#000000" stroke-width="1"/>
    </g>
    <text transform="matrix(1, 0, 0, 1, 258, 548.5)">
      <tspan x="-7.8" y="3.5" font-family="HiraginoSans-W3" font-size="13.533" fill="#006F3F">ブラウザの表示領域</tspan>
    </text>
    <g>
      <path d="M204.5,480.5 L300.5,480.5 L300.5,521 L204.5,521 L204.5,480.5 z" fill="#BFBFBF"/>
      <path d="M204.5,480.5 L300.5,480.5 L300.5,521 L204.5,521 L204.5,480.5 z" fill-opacity="0" stroke="#808080" stroke-width="1"/>
    </g>
    <text transform="matrix(1, 0, 0, 1, 246, 390)">
      <tspan x="-90" y="-5" font-family="ArialMT" font-size="14" fill="#000000">document</tspan>
    </text>
    <g>
      <g>
        <path d="M125.382,423.987 L199.618,477.013" fill-opacity="0" stroke="#3866FF" stroke-width="1"/>
        <path d="M128.754,422.709 L121.314,421.081 L125.266,427.591 M125.382,423.987 L121.314,421.081 M123.406,416.431 L117.594,424.569" fill-opacity="0" stroke="#3866FF" stroke-width="1" stroke-opacity="1"/>
        <path d="M196.246,478.291 L203.686,479.919 L199.734,473.409 M199.618,477.013 L203.686,479.919 M201.594,484.569 L207.406,476.431" fill-opacity="0" stroke="#3866FF" stroke-width="1" stroke-opacity="1"/>
      </g>
      <text fill="#3866FF" transform="matrix(1, 0, -0, 1, 223.143, 453.2)">
        <tspan x="-100.037" y="5.306" font-family="HelveticaNeue-Bold" font-size="14">elem.getBoundingClientRect()</tspan>
      </text>
    </g>
  </g>
</svg>
