<?xml version="1.0" encoding="UTF-8"?>
<!DOCTYPE svg PUBLIC "-//W3C//DTD SVG 1.1//EN" "http://www.w3.org/Graphics/SVG/1.1/DTD/svg11.dtd">
<svg version="1.1" xmlns="http://www.w3.org/2000/svg" xmlns:xlink="http://www.w3.org/1999/xlink" x="0" y="0" width="110" height="42" viewBox="0, 0, 110, 42">
  <defs>
    <linearGradient id="Gradient_1" gradientUnits="userSpaceOnUse" x1="72" y1="280" x2="80" y2="280">
      <stop offset="0" stop-color="#FFFFFF"/>
      <stop offset="1" stop-color="#000000"/>
    </linearGradient>
  </defs>
  <g id="レイヤー_1" transform="translate(-19, -259)">
    <path d="M20.5,264.944 L28.5,260.5" fill-opacity="0" stroke="#000000" stroke-width="1" stroke-linecap="round"/>
    <path d="M28.5,260.5 L36.5,264.944" fill-opacity="0" stroke="#000000" stroke-width="1" stroke-linecap="round"/>
    <path d="M28.5,269.389 L36.5,264.944" fill-opacity="0" stroke="#000000" stroke-width="1" stroke-linecap="round"/>
    <path d="M28.5,269.389 L20.5,264.944" fill-opacity="0" stroke="#000000" stroke-width="1" stroke-linecap="round"/>
    <path d="M28.5,269.389 L28.5,280.5" fill-opacity="0" stroke="#000000" stroke-width="1" stroke-linecap="round"/>
    <path d="M28.5,280.5 L36.5,276.056" fill-opacity="0" stroke="#000000" stroke-width="1" stroke-linecap="round"/>
    <path d="M36.5,264.944 L36.5,276.056" fill-opacity="0" stroke="#000000" stroke-width="1" stroke-linecap="round"/>
    <path d="M20.5,264.944 L20.5,276.056" fill-opacity="0" stroke="#000000" stroke-width="1" stroke-linecap="round"/>
    <path d="M20.5,276.056 L28.5,280.5" fill-opacity="0" stroke="#000000" stroke-width="1" stroke-linecap="round"/>
    <path d="M44.5,264.944 L52.5,260.5" fill-opacity="0" stroke="#000000" stroke-width="1" stroke-linecap="round"/>
    <path d="M52.5,260.5 L60.5,264.944" fill-opacity="0" stroke="#000000" stroke-width="1" stroke-linecap="round"/>
    <path d="M52.5,269.389 L60.5,264.944" fill-opacity="0" stroke="#000000" stroke-width="1" stroke-linecap="round"/>
    <path d="M52.5,269.389 L44.5,264.944" fill-opacity="0" stroke="#000000" stroke-width="1" stroke-linecap="round"/>
    <path d="M52.5,269.389 L52.5,280.5" fill-opacity="0" stroke="#000000" stroke-width="1" stroke-linecap="round"/>
    <path d="M52.5,280.5 L60.5,276.056" fill-opacity="0" stroke="#000000" stroke-width="1" stroke-linecap="round"/>
    <path d="M60.5,264.944 L60.5,276.056" fill-opacity="0" stroke="#000000" stroke-width="1" stroke-linecap="round"/>
    <path d="M44.5,264.944 L44.5,276.056" fill-opacity="0" stroke="#000000" stroke-width="1" stroke-linecap="round"/>
    <path d="M44.5,276.056 L52.5,280.5" fill-opacity="0" stroke="#000000" stroke-width="1" stroke-linecap="round"/>
    <path d="M32.5,284.944 L40.5,280.5" fill-opacity="0" stroke="#000000" stroke-width="1" stroke-linecap="round"/>
    <path d="M40.5,280.5 L48.5,284.944" fill-opacity="0" stroke="#000000" stroke-width="1" stroke-linecap="round"/>
    <path d="M40.5,289.389 L48.5,284.944" fill-opacity="0" stroke="#000000" stroke-width="1" stroke-linecap="round"/>
    <path d="M40.5,289.389 L32.5,284.944" fill-opacity="0" stroke="#000000" stroke-width="1" stroke-linecap="round"/>
    <path d="M40.5,289.389 L40.5,300.5" fill-opacity="0" stroke="#000000" stroke-width="1" stroke-linecap="round"/>
    <path d="M40.5,300.5 L48.5,296.056" fill-opacity="0" stroke="#000000" stroke-width="1" stroke-linecap="round"/>
    <path d="M48.5,284.944 L48.5,296.056" fill-opacity="0" stroke="#000000" stroke-width="1" stroke-linecap="round"/>
    <path d="M32.5,284.944 L32.5,296.056" fill-opacity="0" stroke="#000000" stroke-width="1" stroke-linecap="round"/>
    <path d="M32.5,296.056 L40.5,300.5" fill-opacity="0" stroke="#000000" stroke-width="1" stroke-linecap="round"/>
    <path d="M72,272 L80,280 L72,288 z" fill="url(#Gradient_1)"/>
    <path d="M88.5,264.944 L96.5,260.5" fill-opacity="0" stroke="#000000" stroke-width="1" stroke-linecap="round"/>
    <path d="M96.5,260.5 L104.5,264.944" fill-opacity="0" stroke="#000000" stroke-width="1" stroke-linecap="round"/>
    <path d="M96.5,269.389 L104.5,264.944" fill-opacity="0" stroke="#000000" stroke-width="1" stroke-linecap="round"/>
    <path d="M96.5,269.389 L88.5,264.944" fill-opacity="0" stroke="#000000" stroke-width="1" stroke-linecap="round"/>
    <path d="M96.5,269.389 L96.5,280.5" fill-opacity="0" stroke="#000000" stroke-width="1" stroke-linecap="round"/>
    <path d="M96.5,280.5 L104.5,276.056" fill-opacity="0" stroke="#000000" stroke-width="1" stroke-linecap="round"/>
    <path d="M104.5,264.944 L104.5,276.056" fill-opacity="0" stroke="#000000" stroke-width="1" stroke-linecap="round"/>
    <path d="M88.5,264.944 L88.5,276.056" fill-opacity="0" stroke="#000000" stroke-width="1" stroke-linecap="round"/>
    <path d="M88.5,276.056 L96.5,280.5" fill-opacity="0" stroke="#000000" stroke-width="1" stroke-linecap="round"/>
    <path d="M112.5,264.944 L120.5,260.5" fill-opacity="0" stroke="#EE6600" stroke-width="1" stroke-linecap="round"/>
    <path d="M120.5,260.5 L128.5,264.944" fill-opacity="0" stroke="#EE6600" stroke-width="1" stroke-linecap="round"/>
    <path d="M120.5,269.389 L128.5,264.944" fill-opacity="0" stroke="#EE6600" stroke-width="1" stroke-linecap="round"/>
    <path d="M120.5,269.389 L112.5,264.944" fill-opacity="0" stroke="#EE6600" stroke-width="1" stroke-linecap="round"/>
    <path d="M120.5,269.389 L120.5,280.5" fill-opacity="0" stroke="#EE6600" stroke-width="1" stroke-linecap="round"/>
    <path d="M120.5,280.5 L128.5,276.056" fill-opacity="0" stroke="#EE6600" stroke-width="1" stroke-linecap="round"/>
    <path d="M128.5,264.944 L128.5,276.056" fill-opacity="0" stroke="#EE6600" stroke-width="1" stroke-linecap="round"/>
    <path d="M112.5,264.944 L112.5,276.056" fill-opacity="0" stroke="#EE6600" stroke-width="1" stroke-linecap="round"/>
    <path d="M112.5,276.056 L120.5,280.5" fill-opacity="0" stroke="#EE6600" stroke-width="1" stroke-linecap="round"/>
    <path d="M100.5,284.944 L108.5,280.5" fill-opacity="0" stroke="#000000" stroke-width="1" stroke-linecap="round"/>
    <path d="M108.5,280.5 L116.5,284.944" fill-opacity="0" stroke="#000000" stroke-width="1" stroke-linecap="round"/>
    <path d="M108.5,289.389 L116.5,284.944" fill-opacity="0" stroke="#000000" stroke-width="1" stroke-linecap="round"/>
    <path d="M108.5,289.389 L100.5,284.944" fill-opacity="0" stroke="#000000" stroke-width="1" stroke-linecap="round"/>
    <path d="M108.5,289.389 L108.5,300.5" fill-opacity="0" stroke="#000000" stroke-width="1" stroke-linecap="round"/>
    <path d="M108.5,300.5 L116.5,296.056" fill-opacity="0" stroke="#000000" stroke-width="1" stroke-linecap="round"/>
    <path d="M116.5,284.944 L116.5,296.056" fill-opacity="0" stroke="#000000" stroke-width="1" stroke-linecap="round"/>
    <path d="M100.5,284.944 L100.5,296.056" fill-opacity="0" stroke="#000000" stroke-width="1" stroke-linecap="round"/>
    <path d="M100.5,296.056 L108.5,300.5" fill-opacity="0" stroke="#000000" stroke-width="1" stroke-linecap="round"/>
    <g>
      <path d="M56,280 L56,272 L64,272 z" fill="#3866FF"/>
      <path d="M58,278 L62,274 L66,278 L62,282.444 L58,278 z" fill="#3866FF"/>
    </g>
  </g>
</svg>
