<?xml version="1.0" encoding="UTF-8"?>
<!DOCTYPE svg PUBLIC "-//W3C//DTD SVG 1.1//EN" "http://www.w3.org/Graphics/SVG/1.1/DTD/svg11.dtd">
<svg version="1.1" xmlns="http://www.w3.org/2000/svg" xmlns:xlink="http://www.w3.org/1999/xlink" x="0" y="0" width="118" height="42" viewBox="0, 0, 118, 42">
  <defs>
    <linearGradient id="Gradient_1" gradientUnits="userSpaceOnUse" x1="80" y1="184" x2="88" y2="184">
      <stop offset="0" stop-color="#FFFFFF"/>
      <stop offset="1" stop-color="#000000"/>
    </linearGradient>
    <linearGradient id="Gradient_2" gradientUnits="userSpaceOnUse" x1="-76" y1="184" x2="-68" y2="184" gradientTransform="matrix(-1, 0, 0, 1, 0, 0)">
      <stop offset="0" stop-color="#FFFFFF"/>
      <stop offset="1" stop-color="#000000"/>
    </linearGradient>
  </defs>
  <g id="レイヤー_1" transform="translate(-19, -163)">
    <path d="M20.5,168.944 L28.5,164.5" fill-opacity="0" stroke="#000000" stroke-width="1" stroke-linecap="round"/>
    <path d="M28.5,164.5 L36.5,168.944" fill-opacity="0" stroke="#000000" stroke-width="1" stroke-linecap="round"/>
    <path d="M28.5,173.389 L36.5,168.944" fill-opacity="0" stroke="#000000" stroke-width="1" stroke-linecap="round"/>
    <path d="M28.5,173.389 L20.5,168.944" fill-opacity="0" stroke="#000000" stroke-width="1" stroke-linecap="round"/>
    <path d="M28.5,173.389 L28.5,184.5" fill-opacity="0" stroke="#000000" stroke-width="1" stroke-linecap="round"/>
    <path d="M28.5,184.5 L36.5,180.056" fill-opacity="0" stroke="#000000" stroke-width="1" stroke-linecap="round"/>
    <path d="M36.5,168.944 L36.5,180.056" fill-opacity="0" stroke="#000000" stroke-width="1" stroke-linecap="round"/>
    <path d="M20.5,168.944 L20.5,180.056" fill-opacity="0" stroke="#000000" stroke-width="1" stroke-linecap="round"/>
    <path d="M20.5,180.056 L28.5,184.5" fill-opacity="0" stroke="#000000" stroke-width="1" stroke-linecap="round"/>
    <path d="M44.5,168.944 L52.5,164.5" fill-opacity="0" stroke="#000000" stroke-width="1" stroke-linecap="round"/>
    <path d="M52.5,164.5 L60.5,168.944" fill-opacity="0" stroke="#000000" stroke-width="1" stroke-linecap="round"/>
    <path d="M52.5,173.389 L60.5,168.944" fill-opacity="0" stroke="#000000" stroke-width="1" stroke-linecap="round"/>
    <path d="M52.5,173.389 L44.5,168.944" fill-opacity="0" stroke="#000000" stroke-width="1" stroke-linecap="round"/>
    <path d="M52.5,173.389 L52.5,184.5" fill-opacity="0" stroke="#000000" stroke-width="1" stroke-linecap="round"/>
    <path d="M52.5,184.5 L60.5,180.056" fill-opacity="0" stroke="#000000" stroke-width="1" stroke-linecap="round"/>
    <path d="M60.5,168.944 L60.5,180.056" fill-opacity="0" stroke="#000000" stroke-width="1" stroke-linecap="round"/>
    <path d="M44.5,168.944 L44.5,180.056" fill-opacity="0" stroke="#000000" stroke-width="1" stroke-linecap="round"/>
    <path d="M44.5,180.056 L52.5,184.5" fill-opacity="0" stroke="#000000" stroke-width="1" stroke-linecap="round"/>
    <path d="M32.5,188.944 L40.5,184.5" fill-opacity="0" stroke="#000000" stroke-width="1" stroke-linecap="round"/>
    <path d="M40.5,184.5 L48.5,188.944" fill-opacity="0" stroke="#000000" stroke-width="1" stroke-linecap="round"/>
    <path d="M40.5,193.389 L48.5,188.944" fill-opacity="0" stroke="#000000" stroke-width="1" stroke-linecap="round"/>
    <path d="M40.5,193.389 L32.5,188.944" fill-opacity="0" stroke="#000000" stroke-width="1" stroke-linecap="round"/>
    <path d="M40.5,193.389 L40.5,204.5" fill-opacity="0" stroke="#000000" stroke-width="1" stroke-linecap="round"/>
    <path d="M40.5,204.5 L48.5,200.056" fill-opacity="0" stroke="#000000" stroke-width="1" stroke-linecap="round"/>
    <path d="M48.5,188.944 L48.5,200.056" fill-opacity="0" stroke="#000000" stroke-width="1" stroke-linecap="round"/>
    <path d="M32.5,188.944 L32.5,200.056" fill-opacity="0" stroke="#000000" stroke-width="1" stroke-linecap="round"/>
    <path d="M32.5,200.056 L40.5,204.5" fill-opacity="0" stroke="#000000" stroke-width="1" stroke-linecap="round"/>
    <path d="M80,176 L88,184 L80,192 z" fill="url(#Gradient_1)"/>
    <path d="M96.5,168.944 L104.5,164.5" fill-opacity="0" stroke="#EE6600" stroke-width="1" stroke-linecap="round"/>
    <path d="M104.5,164.5 L112.5,168.944" fill-opacity="0" stroke="#EE6600" stroke-width="1" stroke-linecap="round"/>
    <path d="M104.5,173.389 L112.5,168.944" fill-opacity="0" stroke="#EE6600" stroke-width="1" stroke-linecap="round"/>
    <path d="M104.5,173.389 L96.5,168.944" fill-opacity="0" stroke="#EE6600" stroke-width="1" stroke-linecap="round"/>
    <path d="M104.5,173.389 L104.5,184.5" fill-opacity="0" stroke="#EE6600" stroke-width="1" stroke-linecap="round"/>
    <path d="M104.5,184.5 L112.5,180.056" fill-opacity="0" stroke="#EE6600" stroke-width="1" stroke-linecap="round"/>
    <path d="M112.5,168.944 L112.5,180.056" fill-opacity="0" stroke="#EE6600" stroke-width="1" stroke-linecap="round"/>
    <path d="M96.5,168.944 L96.5,180.056" fill-opacity="0" stroke="#EE6600" stroke-width="1" stroke-linecap="round"/>
    <path d="M96.5,180.056 L104.5,184.5" fill-opacity="0" stroke="#EE6600" stroke-width="1" stroke-linecap="round"/>
    <path d="M120.5,168.944 L128.5,164.5" fill-opacity="0" stroke="#EE6600" stroke-width="1" stroke-linecap="round"/>
    <path d="M128.5,164.5 L136.5,168.944" fill-opacity="0" stroke="#EE6600" stroke-width="1" stroke-linecap="round"/>
    <path d="M128.5,173.389 L136.5,168.944" fill-opacity="0" stroke="#EE6600" stroke-width="1" stroke-linecap="round"/>
    <path d="M128.5,173.389 L120.5,168.944" fill-opacity="0" stroke="#EE6600" stroke-width="1" stroke-linecap="round"/>
    <path d="M128.5,173.389 L128.5,184.5" fill-opacity="0" stroke="#EE6600" stroke-width="1" stroke-linecap="round"/>
    <path d="M128.5,184.5 L136.5,180.056" fill-opacity="0" stroke="#EE6600" stroke-width="1" stroke-linecap="round"/>
    <path d="M136.5,168.944 L136.5,180.056" fill-opacity="0" stroke="#EE6600" stroke-width="1" stroke-linecap="round"/>
    <path d="M120.5,168.944 L120.5,180.056" fill-opacity="0" stroke="#EE6600" stroke-width="1" stroke-linecap="round"/>
    <path d="M120.5,180.056 L128.5,184.5" fill-opacity="0" stroke="#EE6600" stroke-width="1" stroke-linecap="round"/>
    <path d="M108.5,188.944 L116.5,184.5" fill-opacity="0" stroke="#EE6600" stroke-width="1" stroke-linecap="round"/>
    <path d="M116.5,184.5 L124.5,188.944" fill-opacity="0" stroke="#EE6600" stroke-width="1" stroke-linecap="round"/>
    <path d="M116.5,193.389 L124.5,188.944" fill-opacity="0" stroke="#EE6600" stroke-width="1" stroke-linecap="round"/>
    <path d="M116.5,193.389 L108.5,188.944" fill-opacity="0" stroke="#EE6600" stroke-width="1" stroke-linecap="round"/>
    <path d="M116.5,193.389 L116.5,204.5" fill-opacity="0" stroke="#EE6600" stroke-width="1" stroke-linecap="round"/>
    <path d="M116.5,204.5 L124.5,200.056" fill-opacity="0" stroke="#EE6600" stroke-width="1" stroke-linecap="round"/>
    <path d="M124.5,188.944 L124.5,200.056" fill-opacity="0" stroke="#EE6600" stroke-width="1" stroke-linecap="round"/>
    <path d="M108.5,188.944 L108.5,200.056" fill-opacity="0" stroke="#EE6600" stroke-width="1" stroke-linecap="round"/>
    <path d="M108.5,200.056 L116.5,204.5" fill-opacity="0" stroke="#EE6600" stroke-width="1" stroke-linecap="round"/>
    <path d="M76,176 L68,184 L76,192 z" fill="url(#Gradient_2)"/>
  </g>
</svg>
