<?xml version="1.0" encoding="UTF-8"?>
<!DOCTYPE svg PUBLIC "-//W3C//DTD SVG 1.1//EN" "http://www.w3.org/Graphics/SVG/1.1/DTD/svg11.dtd">
<svg version="1.1" xmlns="http://www.w3.org/2000/svg" xmlns:xlink="http://www.w3.org/1999/xlink" x="0" y="0" width="98" height="42" viewBox="0, 0, 98, 42">
  <defs>
    <linearGradient id="Gradient_1" gradientUnits="userSpaceOnUse" x1="64" y1="40" x2="72" y2="40">
      <stop offset="0" stop-color="#FFFFFF"/>
      <stop offset="1" stop-color="#000000"/>
    </linearGradient>
  </defs>
  <g id="レイヤー_1" transform="translate(-19, -19)">
    <g>
      <path d="M20.5,20.5 L60.5,20.5 L60.5,60.5 L20.5,60.5 L20.5,20.5 z" fill="#FFFFFF"/>
      <path d="M20.5,20.5 L60.5,20.5 L60.5,60.5 L20.5,60.5 L20.5,20.5 z" fill-opacity="0" stroke="#EE6600" stroke-width="1" stroke-linejoin="round"/>
    </g>
    <g>
      <path d="M76.5,20.5 L116.5,20.5 L116.5,60.5 L76.5,60.5 L76.5,20.5 z" fill="#FFFFFF"/>
      <path d="M76.5,20.5 L116.5,20.5 L116.5,60.5 L76.5,60.5 L76.5,20.5 z" fill-opacity="0" stroke="#000000" stroke-width="1" stroke-linecap="round" stroke-linejoin="round"/>
    </g>
    <path d="M76.5,20.5 L84.5,28.5" fill-opacity="0" stroke="#000000" stroke-width="1" stroke-linecap="round"/>
    <path d="M116.5,20.5 L108.5,28.5" fill-opacity="0" stroke="#000000" stroke-width="1" stroke-linecap="round"/>
    <path d="M116.5,60.5 L108.5,52.5" fill-opacity="0" stroke="#000000" stroke-width="1" stroke-linecap="round"/>
    <path d="M76.5,60.5 L84.5,52.5" fill-opacity="0" stroke="#000000" stroke-width="1" stroke-linecap="round"/>
    <path d="M64,32 L72,40 L64,48 z" fill="url(#Gradient_1)"/>
    <g>
      <path d="M84.5,28.5 L108.5,28.5 L108.5,52.5 L84.5,52.5 L84.5,28.5 z" fill="#FFFFFF"/>
      <path d="M84.5,28.5 L108.5,28.5 L108.5,52.5 L84.5,52.5 L84.5,28.5 z" fill-opacity="0" stroke="#EE6600" stroke-width="1" stroke-linecap="round" stroke-linejoin="round"/>
    </g>
  </g>
</svg>
