<?xml version="1.0" encoding="UTF-8"?>
<!DOCTYPE svg PUBLIC "-//W3C//DTD SVG 1.1//EN" "http://www.w3.org/Graphics/SVG/1.1/DTD/svg11.dtd">
<svg version="1.1" xmlns="http://www.w3.org/2000/svg" xmlns:xlink="http://www.w3.org/1999/xlink" x="0" y="0" width="102" height="50" viewBox="0, 0, 102, 50">
  <defs>
    <linearGradient id="Gradient_1" gradientUnits="userSpaceOnUse" x1="300" y1="184" x2="308" y2="184">
      <stop offset="0" stop-color="#FFFFFF"/>
      <stop offset="1" stop-color="#000000"/>
    </linearGradient>
  </defs>
  <g id="レイヤー_1" transform="translate(-251, -159)">
    <g>
      <path d="M260.5,168.5 L292.5,168.5 L292.5,200.5 L260.5,200.5 L260.5,168.5 z" fill="#FFFFFF"/>
      <path d="M260.5,168.5 L292.5,168.5 L292.5,200.5 L260.5,200.5 L260.5,168.5 z" fill-opacity="0" stroke="#000000" stroke-width="1" stroke-linejoin="round"/>
    </g>
    <g>
      <path d="M316.5,168.5 L348.5,168.5 L348.5,200.5 L316.5,200.5 L316.5,168.5 z" fill="#FFFFFF"/>
      <path d="M316.5,168.5 L348.5,168.5 L348.5,200.5 L316.5,200.5 L316.5,168.5 z" fill-opacity="0" stroke="#000000" stroke-width="1" stroke-linecap="round" stroke-linejoin="round"/>
    </g>
    <path d="M316.5,168.5 L348.5,200.5" fill-opacity="0" stroke="#EE6600" stroke-width="3" stroke-linecap="round"/>
    <path d="M300,176 L308,184 L300,192 z" fill="url(#Gradient_1)"/>
    <path d="M260.5,168.5 L260.5,168.5" fill-opacity="0" stroke="#EE6600" stroke-width="5" stroke-linecap="round"/>
    <path d="M292.5,200.5 L292.5,200.5" fill-opacity="0" stroke="#EE6600" stroke-width="5" stroke-linecap="round"/>
  </g>
</svg>
