<?xml version="1.0" encoding="UTF-8"?>
<!DOCTYPE svg PUBLIC "-//W3C//DTD SVG 1.1//EN" "http://www.w3.org/Graphics/SVG/1.1/DTD/svg11.dtd">
<svg version="1.1" xmlns="http://www.w3.org/2000/svg" xmlns:xlink="http://www.w3.org/1999/xlink" x="0" y="0" width="103" height="42" viewBox="0, 0, 103, 42">
  <defs>
    <linearGradient id="Gradient_1" gradientUnits="userSpaceOnUse" x1="184" y1="136" x2="192" y2="136">
      <stop offset="0" stop-color="#FFFFFF"/>
      <stop offset="1" stop-color="#000000"/>
    </linearGradient>
  </defs>
  <g id="レイヤー_1" transform="translate(-135, -111)">
    <g>
      <path d="M216.5,116.5 L216.5,136.5 L200.5,144.5 L200.5,124.5" fill="#D5D5D5"/>
      <path d="M216.5,116.5 L216.5,136.5 L200.5,144.5 L200.5,124.5" fill-opacity="0" stroke="#000000" stroke-width="1" stroke-linecap="round" stroke-linejoin="bevel"/>
    </g>
    <g>
      <path d="M160.5,132.5 L160.5,152.5 L176.5,144.5 L176.5,124.5 L160.5,132.5" fill="#D5D5D5"/>
      <path d="M160.5,132.5 L160.5,152.5 L176.5,144.5 L176.5,124.5 L160.5,132.5" fill-opacity="0" stroke="#000000" stroke-width="1" stroke-linecap="round" stroke-linejoin="bevel"/>
    </g>
    <g>
      <path d="M140.5,124.5 L140.5,144.5 L156.5,136.5 L156.5,116.5 L140.5,124.5" fill="#D5D5D5"/>
      <path d="M140.5,124.5 L140.5,144.5 L156.5,136.5 L156.5,116.5 L140.5,124.5" fill-opacity="0" stroke="#000000" stroke-width="1" stroke-linecap="round" stroke-linejoin="bevel"/>
    </g>
    <path d="M184,128 L192,136 L184,144 z" fill="url(#Gradient_1)"/>
    <g>
      <path d="M220.5,132.5 L220.5,152.5 L236.5,144.5 L236.5,124.5" fill="#D5D5D5"/>
      <path d="M220.5,132.5 L220.5,152.5 L236.5,144.5 L236.5,124.5" fill-opacity="0" stroke="#000000" stroke-width="1" stroke-linecap="round" stroke-linejoin="bevel"/>
    </g>
    <g>
      <path d="M200.5,124.5 L216.5,116.5 L236.5,124.5 L220.5,132.5 L200.5,124.5" fill="#FFB680"/>
      <path d="M200.5,124.5 L216.5,116.5 L236.5,124.5 L220.5,132.5 L200.5,124.5" fill-opacity="0" stroke="#EE6600" stroke-width="2" stroke-linecap="round" stroke-linejoin="bevel"/>
    </g>
    <path d="M140.5,124.5 L156.5,116.5" fill-opacity="0" stroke="#EE6600" stroke-width="2" stroke-linecap="round"/>
    <path d="M160.5,132.5 L176.5,124.5" fill-opacity="0" stroke="#EE6600" stroke-width="2" stroke-linecap="round"/>
  </g>
</svg>
