<?xml version="1.0" encoding="UTF-8"?>
<!DOCTYPE svg PUBLIC "-//W3C//DTD SVG 1.1//EN" "http://www.w3.org/Graphics/SVG/1.1/DTD/svg11.dtd">
<svg version="1.1" xmlns="http://www.w3.org/2000/svg" xmlns:xlink="http://www.w3.org/1999/xlink" x="0" y="0" width="94" height="42" viewBox="0, 0, 94, 42">
  <defs>
    <linearGradient id="Gradient_1" gradientUnits="userSpaceOnUse" x1="300" y1="136" x2="308" y2="136">
      <stop offset="0" stop-color="#FFFFFF"/>
      <stop offset="1" stop-color="#000000"/>
    </linearGradient>
  </defs>
  <g id="レイヤー_1" transform="translate(-259, -115)">
    <g>
      <path d="M260.5,120.5 L292.5,120.5 L292.5,152.5 L260.5,152.5 L260.5,120.5 z" fill="#FFCEAA"/>
      <path d="M260.5,120.5 L292.5,120.5 L292.5,152.5 L260.5,152.5 L260.5,120.5 z" fill-opacity="0" stroke="#EE6600" stroke-width="1" stroke-linejoin="round"/>
    </g>
    <g>
      <path d="M316.5,120.5 L348.5,120.5 L348.5,152.5 L316.5,152.5 L316.5,120.5 z" fill="#FFCEAA"/>
      <path d="M316.5,120.5 L348.5,120.5 L348.5,152.5 L316.5,152.5 L316.5,120.5 z" fill-opacity="0" stroke="#EE6600" stroke-width="2" stroke-linecap="round" stroke-linejoin="round"/>
    </g>
    <path d="M332.5,120.5 L332.5,152.5" fill-opacity="0" stroke="#EE6600" stroke-width="2" stroke-linecap="round"/>
    <path d="M300,128 L308,136 L300,144 z" fill="url(#Gradient_1)"/>
    <path d="M348.5,136.5 L316.5,136.5" fill-opacity="0" stroke="#EE6600" stroke-width="2" stroke-linecap="round"/>
    <path d="M348.5,128.5 L316.5,128.5" fill-opacity="0" stroke="#EE6600" stroke-width="2" stroke-linecap="round"/>
    <path d="M348.5,144.5 L316.5,144.5" fill-opacity="0" stroke="#EE6600" stroke-width="2" stroke-linecap="round"/>
    <path d="M324.5,152.5 L324.5,120.5" fill-opacity="0" stroke="#EE6600" stroke-width="2" stroke-linecap="round"/>
    <path d="M340.5,152.5 L340.5,120.5" fill-opacity="0" stroke="#EE6600" stroke-width="2" stroke-linecap="round"/>
  </g>
</svg>
