<?xml version="1.0" encoding="UTF-8"?>
<!DOCTYPE svg PUBLIC "-//W3C//DTD SVG 1.1//EN" "http://www.w3.org/Graphics/SVG/1.1/DTD/svg11.dtd">
<svg version="1.1" xmlns="http://www.w3.org/2000/svg" xmlns:xlink="http://www.w3.org/1999/xlink" x="0" y="0" width="98" height="42" viewBox="0, 0, 98, 42">
  <defs>
    <linearGradient id="Gradient_1" gradientUnits="userSpaceOnUse" x1="60" y1="88" x2="68" y2="88">
      <stop offset="0" stop-color="#FFFFFF"/>
      <stop offset="1" stop-color="#000000"/>
    </linearGradient>
  </defs>
  <g id="レイヤー_1" transform="translate(-19, -67)">
    <path d="M20.5,76.5 L36.5,68.5" fill-opacity="0" stroke="#000000" stroke-width="1" stroke-linecap="round"/>
    <path d="M36.5,68.5 L52.5,76.5" fill-opacity="0" stroke="#000000" stroke-width="1" stroke-linecap="round"/>
    <path d="M36.5,84.5 L52.5,76.5" fill-opacity="0" stroke="#EE6600" stroke-width="1" stroke-linecap="round"/>
    <path d="M36.5,84.5 L20.5,76.5" fill-opacity="0" stroke="#000000" stroke-width="1" stroke-linecap="round"/>
    <path d="M36.5,104.5 L52.5,96.5" fill-opacity="0" stroke="#EE6600" stroke-width="1" stroke-linecap="round"/>
    <path d="M52.5,76.5 L52.5,96.5" fill-opacity="0" stroke="#EE6600" stroke-width="1" stroke-linecap="round"/>
    <path d="M20.5,76.5 L20.5,96.5" fill-opacity="0" stroke="#000000" stroke-width="1" stroke-linecap="round"/>
    <path d="M20.5,96.5 L36.5,104.5" fill-opacity="0" stroke="#000000" stroke-width="1" stroke-linecap="round"/>
    <path d="M76.5,76.5 L92.5,68.5" fill-opacity="0" stroke="#000000" stroke-width="1" stroke-linecap="round"/>
    <path d="M92.5,68.5 L116.5,80.5" fill-opacity="0" stroke="#000000" stroke-width="1" stroke-linecap="round"/>
    <path d="M92.5,84.5 L108.5,76.5" fill-opacity="0" stroke="#000000" stroke-width="1" stroke-linecap="round"/>
    <path d="M100.5,88.5 L76.5,76.5" fill-opacity="0" stroke="#000000" stroke-width="1" stroke-linecap="round"/>
    <path d="M92.5,84.5 L92.5,104.5" fill-opacity="0" stroke="#000000" stroke-width="1" stroke-linecap="round"/>
    <path d="M76.5,76.5 L76.5,96.5" fill-opacity="0" stroke="#000000" stroke-width="1" stroke-linecap="round"/>
    <path d="M76.5,96.5 L100.5,108.5" fill-opacity="0" stroke="#000000" stroke-width="1" stroke-linecap="round"/>
    <path d="M100.5,88.5 L116.5,80.5" fill-opacity="0" stroke="#EE6600" stroke-width="1" stroke-linecap="round"/>
    <path d="M100.5,88.5 L100.5,108.5" fill-opacity="0" stroke="#EE6600" stroke-width="1" stroke-linecap="round"/>
    <path d="M100.5,108.5 L116.5,100.5" fill-opacity="0" stroke="#EE6600" stroke-width="1" stroke-linecap="round"/>
    <path d="M116.5,80.5 L116.5,100.5" fill-opacity="0" stroke="#EE6600" stroke-width="1" stroke-linecap="round"/>
    <path d="M60,80 L68,88 L60,96 z" fill="url(#Gradient_1)"/>
    <path d="M36.5,84.5 L36.5,104.5" fill-opacity="0" stroke="#EE6600" stroke-width="1" stroke-linecap="round"/>
  </g>
</svg>
