<svg xmlns="http://www.w3.org/2000/svg" viewBox="0 0 462.167 462.167"><path d="M183.819 132.264a20 20 0 1 1-40 0 20 20 0 1 1 40 0zM155.534 154.548h14.648a17.173 17.173 0 0 1 17.172 17.172v80.35a17.173 17.173 0 0 1-17.172 17.173h-14.648a17.173 17.173 0 0 1-17.172-17.172v-80.35a17.173 17.173 0 0 1 17.172-17.173"/><path d="M153.415 240.675h80.812a14.647 14.647 0 0 1 14.648 14.647 14.647 14.647 0 0 1-14.648 14.647h-80.812a14.647 14.647 0 0 1-14.647-14.647 14.647 14.647 0 0 1 14.647-14.647"/><path d="M237.763 246.23a11.112 11.112 0 0 1 11.112 11.112v70.71a11.112 11.112 0 0 1-11.112 11.112 11.112 11.112 0 0 1-11.112-11.111v-70.71a11.112 11.112 0 0 1 11.112-11.113M206.277 209.865h130.31a7.829 7.829 0 0 1 7.828 7.829v.505a7.829 7.829 0 0 1-7.829 7.828h-130.31a7.829 7.829 0 0 1-7.828-7.828v-.505a7.829 7.829 0 0 1 7.829-7.83M214.803 193.923h21.17a8.355 7.324 0 0 1 8.356 7.324 8.355 7.324 0 0 1-8.355 7.324h-21.17a8.355 7.324 0 0 1-8.356-7.324 8.355 7.324 0 0 1 8.355-7.324"/><path d="m184.483 161.036 31.316 30.763a10.376 6.996 44.49 0 1 2.499 12.262l-.813.827a10.376 6.996 44.49 0 1-12.305-2.28l-31.316-30.763a10.376 6.996 44.49 0 1-2.499-12.262l.813-.828a10.376 6.996 44.49 0 1 12.305 2.28M250.915 194.428h18.688a5.05 6.819 0 0 1 5.05 6.819 5.05 6.819 0 0 1-5.05 6.818h-18.688a5.05 6.819 0 0 1-5.05-6.818 5.05 6.819 0 0 1 5.05-6.819M293.646 198.954h42.932a1.515 4.798 0 0 1 1.515 4.798 1.515 4.798 0 0 1-1.515 4.798h-42.932a1.515 4.798 0 0 1-1.515-4.798 1.515 4.798 0 0 1 1.515-4.798"/><path d="M308.375 185.822h15.152a1.515 8.71 0 0 1 1.515 8.71 1.515 8.71 0 0 1-1.515 8.711h-15.152a1.515 8.71 0 0 1-1.516-8.71 1.515 8.71 0 0 1 1.516-8.711M279.626 130.543h7.576a1.515 9.596 0 0 1 1.515 9.596v50.508a1.515 9.596 0 0 1-1.515 9.596h-7.576a1.515 9.596 0 0 1-1.515-9.596v-50.508a1.515 9.596 0 0 1 1.515-9.596"/><path fill-rule="evenodd" stroke="#000" d="m286.192 137.697 59.279 16.163v31.82l-58.774 8.586-.505-56.569z"/><path d="M142.788 272.756h63.64a1.515 5.556 0 0 1 1.515 5.556 1.515 5.556 0 0 1-1.515 5.555h-63.64a1.515 5.556 0 0 1-1.515-5.555 1.515 5.556 0 0 1 1.515-5.556"/><path fill="none" stroke="#000" stroke-linecap="round" stroke-width="15" d="M333.861 218.032c-29.021.615-67.133 36.898-7.394 113.512"/><path fill="#fff" fill-rule="evenodd" stroke="#fff" d="M272.523 200.09c-1.062-.076-9.294-.09-9.294-.09l.064-4c.157 0 5.626-.043 7.01.126 1.801.22 2.464 3.98 2.22 3.963z"/><path fill="none" stroke="#000" stroke-linejoin="round" stroke-width="32.296" d="m248.483 23.378 190.306 190.306a24.607 24.607 0 0 1 0 34.8L248.483 438.79a24.607 24.607 0 0 1-34.8 0L23.378 248.483a24.607 24.607 0 0 1 0-34.799L213.684 23.378a24.607 24.607 0 0 1 34.799 0"/><path fill="none" stroke="#000" stroke-width="15" d="M171.095 279.286 129.666 350"/></svg>