<?xml version="1.0" encoding="UTF-8"?>
<svg viewBox="0 0 186.69325 206.07425" xmlns="http://www.w3.org/2000/svg" xmlns:xlink="http://www.w3.org/1999/xlink">
 <defs>
  <filter id="g" x="-.06426" y="-.19277" width="1.1285" height="1.3855">
   <feGaussianBlur stdDeviation=".8925"/>
  </filter>
  <linearGradient id="a">
   <stop stop-color="#fff" offset="0"/>
   <stop stop-color="#fff" stop-opacity="0" offset="1"/>
  </linearGradient>
  <linearGradient id="f" x1="288.41" x2="308.09" gradientUnits="userSpaceOnUse" spreadMethod="reflect">
   <stop stop-color="#c6c6c6" offset="0"/>
   <stop stop-color="#e3e3e3" offset=".20485"/>
   <stop stop-color="#a5a5a8" offset="1"/>
  </linearGradient>
  <linearGradient id="e" x1="282.36" x2="286.63" y1="518.56" y2="527.34" gradientUnits="userSpaceOnUse">
   <stop stop-color="#e3e3e3" offset="0"/>
   <stop stop-color="#a5a5a8" offset="1"/>
  </linearGradient>
  <linearGradient id="d" x1="308.5" x2="327.78" y1="522.86" y2="520.58" gradientUnits="userSpaceOnUse" xlink:href="#a" spreadMethod="reflect"/>
  <linearGradient id="c" x1="308.5" x2="327.78" y1="534.61" y2="532.33" gradientUnits="userSpaceOnUse" xlink:href="#a" spreadMethod="reflect"/>
  <linearGradient id="b" x1="308.5" x2="327.78" y1="544.61" y2="542.33" gradientUnits="userSpaceOnUse" xlink:href="#a" spreadMethod="reflect"/>
 </defs>
 <g transform="matrix(4.1992 0 0 4.1992 -1200.4 -2144.5)">
  <path transform="matrix(1.1818 0 0 1.1818 -30.649 -65.984)" d="m303.3 521.78c0 3.0684-7.4623 5.5558-16.668 5.5558s-16.668-2.4874-16.668-5.5558 7.4623-5.5558 16.668-5.5558 16.668 2.4874 16.668 5.5558z" fill="#2e3436" filter="url(#g)"/>
  <path d="m288.40625,517.5v30.09191h.125c-.0806.24126-.125.47032-.125.71875 0,3.6263 8.80861,6.5625 19.6875,6.5625s19.6875-2.9362 19.6875-6.5625c0-.24879-.0442-.47715-.125-.71875h.125v-30.09191h-39.375z" fill="url(#f)"/>
  <path transform="matrix(1.1818 0 0 1.1818 -30.649 -99.394)" d="m303.3 521.78c0 3.0684-7.4623 5.5558-16.668 5.5558s-16.668-2.4874-16.668-5.5558 7.4623-5.5558 16.668-5.5558 16.668 2.4874 16.668 5.5558z" fill="url(#e)"/>
  <path d="m288.38 539.09c0.14735 3.584 8.9318 6.4688 19.719 6.4688 10.756 0 19.492-2.8677 19.688-6.4375-3.4515 2.9359-10.959 4.9688-19.688 4.9688-8.7461 0-16.277-2.0544-19.719-5z" fill="#565656"/>
  <path d="m288.38 517.34c0.14735 3.584 8.9318 6.4688 19.719 6.4688 10.756 0 19.492-2.8677 19.688-6.4375-0.21572 0.18349-0.44078 0.35509-0.6875 0.53125l-0.0312 0.0312c-2.2921 2.7774-9.9035 4.8125-18.969 4.8125-9.122 0-16.786-2.0707-19.031-4.875l-0.0625-0.0625c-0.21872-0.15969-0.43159-0.30323-0.625-0.46875z" fill="url(#d)"/>
  <g transform="translate(0,-.52315)">
   <path d="m288.38 529.09c0.14735 3.584 8.9318 6.4688 19.719 6.4688 10.756 0 19.492-2.8677 19.688-6.4375-3.4515 2.9359-10.959 4.9688-19.688 4.9688-8.7461 0-16.277-2.0544-19.719-5z" fill="#565656"/>
   <path d="m288.38 529.09c0.14735 3.584 8.9318 6.4688 19.719 6.4688 10.756 0 19.492-2.8677 19.688-6.4375l-0.15625 0.125c-1.2422 3.2268-9.5106 5.7188-19.531 5.7188-10.113 0-18.468-2.5112-19.594-5.7812l-0.125-0.0937z" fill="url(#c)"/>
  </g>
  <path d="m288.38 539.09c0.14735 3.584 8.9318 6.4688 19.719 6.4688 10.756 0 19.492-2.8677 19.688-6.4375l-0.15625 0.125c-1.2422 3.2268-9.5106 5.7188-19.531 5.7188-10.113 0-18.468-2.5112-19.594-5.7812l-0.125-0.0937z" fill="url(#b)"/>
  <path d="m288.5 549.94c1.126 3.27 9.481 5.7812 19.594 5.7812 10.021 0 18.289-2.492 19.531-5.7188-3.5163 2.8678-10.929 4.8438-19.531 4.8438-8.6478 0-16.1-2.0137-19.594-4.9062z" fill="#565656"/>
 </g>
</svg>
